<?xml version="1.0" encoding="UTF-8" standalone="no"?>
<!-- Created with Inkscape (http://www.inkscape.org/) -->

<svg
   width="210mm"
   height="297mm"
   viewBox="0 0 210 297"
   version="1.1"
   id="svg5"
   inkscape:version="1.1.1 (3bf5ae0d25, 2021-09-20)"
   sodipodi:docname="logo.svg"
   inkscape:export-filename="D:\programming\vue\portfolio\src\assets\logo.png"
   inkscape:export-xdpi="96"
   inkscape:export-ydpi="96"
   xmlns:inkscape="http://www.inkscape.org/namespaces/inkscape"
   xmlns:sodipodi="http://sodipodi.sourceforge.net/DTD/sodipodi-0.dtd"
   xmlns="http://www.w3.org/2000/svg"
   xmlns:svg="http://www.w3.org/2000/svg">
  <sodipodi:namedview
     id="namedview7"
     pagecolor="#ffffff"
     bordercolor="#666666"
     borderopacity="1.0"
     inkscape:pageshadow="2"
     inkscape:pageopacity="0.0"
     inkscape:pagecheckerboard="0"
     inkscape:document-units="mm"
     showgrid="false"
     inkscape:zoom="1.4142136"
     inkscape:cx="336.22927"
     inkscape:cy="345.42166"
     inkscape:window-width="1920"
     inkscape:window-height="1009"
     inkscape:window-x="1358"
     inkscape:window-y="-8"
     inkscape:window-maximized="1"
     inkscape:current-layer="g69061" />
  <defs
     id="defs2">
    <rect
       x="317"
       y="220"
       width="98.75"
       height="118.75"
       id="rect63872" />
    <rect
       x="167.75"
       y="202"
       width="129"
       height="133.25"
       id="rect51024" />
    <rect
       x="309.23783"
       y="366.45364"
       width="249.29745"
       height="247.93517"
       id="rect24027" />
    <rect
       x="171.64743"
       y="201.61761"
       width="295.61501"
       height="286.07905"
       id="rect2013" />
    <rect
       x="171.64743"
       y="201.61761"
       width="295.61501"
       height="286.07905"
       id="rect41256" />
    <rect
       x="309.23783"
       y="366.45364"
       width="249.29745"
       height="247.93517"
       id="rect41258" />
    <rect
       x="167.75"
       y="202"
       width="129"
       height="133.25"
       id="rect69050" />
    <rect
       x="317"
       y="220"
       width="98.75"
       height="118.75"
       id="rect69052" />
  </defs>
  <g
     inkscape:groupmode="layer"
     id="layer2"
     inkscape:label="Camada 2"
     style="display:inline">
    <ellipse
       style="fill:#006680;stroke-width:0.229849"
       id="path40827"
       cx="62.175373"
       cy="71.546722"
       rx="12.795509"
       ry="13.516383" />
  </g>
  <g
     inkscape:groupmode="layer"
     id="g69048"
     inkscape:label="Camada 3 copiar"
     style="display:inline">
    <path
       id="text69042"
       style="font-style:normal;font-weight:normal;font-size:85.3333px;line-height:1.25;font-family:sans-serif;white-space:pre;shape-inside:url(#rect69050);fill:#006680;fill-opacity:1;stroke:none"
       d="m 190.95898,223.56055 v 3.33398 h 8.33204 v 53.875 h -8.33204 v 3.33203 h 24.375 v -3.33203 h -7.91796 v -53.875 h 7.91796 v -3.33398 z m 37.33204,0 v 3.33398 h 6.29296 l -25.5,25.95703 24.29102,27.91797 h -6.25 v 3.33203 h 23 v -3.33203 h -6.5 l -27.16602,-30.75 23,-23.125 h 8.45704 v -3.33398 z m 24.04296,40.5 v 3.33398 h 8.75 v 45 c 0,1.91667 -0.20833,3.52648 -0.625,4.83203 -0.41666,1.30556 -1,2.37565 -1.75,3.20899 -0.75,0.80555 -1.64019,1.38889 -2.66796,1.75 -1,0.33333 -2.08334,0.5 -3.25,0.5 -2.36111,0 -4.44445,-0.58334 -6.25,-1.75 0.83333,-0.63889 1.47352,-1.40213 1.91796,-2.29102 0.44445,-0.91667 0.66602,-1.83333 0.66602,-2.75 0,-0.63889 -0.11176,-1.25065 -0.33398,-1.83398 -0.19445,-0.58334 -0.49935,-1.08334 -0.91602,-1.5 -0.38889,-0.44445 -0.87565,-0.79102 -1.45898,-1.04102 -0.55556,-0.27778 -1.1938,-0.41797 -1.91602,-0.41797 -0.66667,0 -1.3049,0.125 -1.91602,0.375 -0.58333,0.22222 -1.11176,0.55556 -1.58398,1 -0.44444,0.41667 -0.80621,0.9451 -1.08398,1.58399 -0.27778,0.63889 -0.41602,1.37565 -0.41602,2.20898 0,1.27778 0.33333,2.51259 1,3.70703 0.66667,1.16667 1.58333,2.1951 2.75,3.08399 1.19444,0.88889 2.59787,1.59722 4.20898,2.125 1.61111,0.55555 3.36112,0.83398 5.25,0.83398 2.52778,0 4.80426,-0.47352 6.83204,-1.41797 2.05555,-0.94444 3.79231,-2.17925 5.20898,-3.70703 1.41667,-1.55555 2.5,-3.32075 3.25,-5.29297 0.77778,-2 1.16602,-4.04167 1.16602,-6.125 V 267.39453 H 277.5 v -3.33398 z"
       transform="scale(0.26458333)" />
  </g>
  <g
     inkscape:groupmode="layer"
     id="g69061"
     inkscape:label="Camada 2 copiar 1"
     style="display:inline">
    <path
       id="ellipse69059"
       style="fill:#afe9dd;stroke-width:0.868721"
       sodipodi:type="inkscape:offset"
       inkscape:radius="0"
       inkscape:original="M 228.29102 223.56055 L 228.29102 226.89453 L 234.58398 226.89453 L 209.08398 252.85156 L 233.375 280.76953 L 227.125 280.76953 L 227.125 284.10156 L 250.125 284.10156 L 250.125 280.76953 L 243.625 280.76953 L 216.45898 250.01953 L 239.45898 226.89453 L 247.91602 226.89453 L 247.91602 223.56055 L 228.29102 223.56055 z M 215.33398 223.77734 A 48.360979 51.085542 0 0 0 209.72266 226.89453 L 215.33398 226.89453 L 215.33398 223.77734 z M 207.41602 228.46289 A 48.360979 51.085542 0 0 0 199.29102 235.97461 L 199.29102 280.76953 L 190.95898 280.76953 L 190.95898 284.10156 L 215.33398 284.10156 L 215.33398 280.76953 L 207.41602 280.76953 L 207.41602 228.46289 z M 252.33398 264.06055 L 252.33398 267.39453 L 261.08398 267.39453 L 261.08398 312.39453 C 261.08398 312.74543 261.06869 313.07388 261.05469 313.4043 A 48.360979 51.085542 0 0 0 269.16602 306.51172 L 269.16602 267.39453 L 277.5 267.39453 L 277.5 264.06055 L 252.33398 264.06055 z M 244.5 311.10156 C 243.83333 311.10156 243.1951 311.22656 242.58398 311.47656 C 242.00065 311.69878 241.47222 312.03212 241 312.47656 C 240.55556 312.89323 240.19379 313.42166 239.91602 314.06055 C 239.63824 314.69944 239.5 315.4362 239.5 316.26953 C 239.5 317.54731 239.83333 318.78212 240.5 319.97656 C 240.71241 320.34828 240.95949 320.7014 241.22266 321.04492 A 48.360979 51.085542 0 0 0 247.83594 319.62891 C 248.0708 319.31806 248.28424 318.99402 248.45898 318.64453 C 248.90343 317.72786 249.125 316.8112 249.125 315.89453 C 249.125 315.25564 249.01324 314.64388 248.79102 314.06055 C 248.59657 313.47721 248.29167 312.97721 247.875 312.56055 C 247.48611 312.1161 246.99935 311.76953 246.41602 311.51953 C 245.86046 311.24175 245.22222 311.10156 244.5 311.10156 z "
       d="m 228.29102,223.56055 v 3.33398 h 6.29296 l -25.5,25.95703 24.29102,27.91797 h -6.25 v 3.33203 h 23 v -3.33203 h -6.5 l -27.16602,-30.75 23,-23.125 h 8.45704 v -3.33398 z m -12.95704,0.21679 a 48.360979,51.085542 0 0 0 -5.61132,3.11719 h 5.61132 z m -7.91796,4.68555 a 48.360979,51.085542 0 0 0 -8.125,7.51172 v 44.79492 h -8.33204 v 3.33203 h 24.375 v -3.33203 h -7.91796 z m 44.91796,35.59766 v 3.33398 h 8.75 v 45 c 0,0.3509 -0.0153,0.67935 -0.0293,1.00977 a 48.360979,51.085542 0 0 0 8.11133,-6.89258 V 267.39453 H 277.5 v -3.33398 z M 244.5,311.10156 c -0.66667,0 -1.3049,0.125 -1.91602,0.375 -0.58333,0.22222 -1.11176,0.55556 -1.58398,1 -0.44444,0.41667 -0.80621,0.9451 -1.08398,1.58399 -0.27778,0.63889 -0.41602,1.37565 -0.41602,2.20898 0,1.27778 0.33333,2.51259 1,3.70703 0.21241,0.37172 0.45949,0.72484 0.72266,1.06836 a 48.360979,51.085542 0 0 0 6.61328,-1.41601 c 0.23486,-0.31085 0.4483,-0.63489 0.62304,-0.98438 0.44445,-0.91667 0.66602,-1.83333 0.66602,-2.75 0,-0.63889 -0.11176,-1.25065 -0.33398,-1.83398 -0.19445,-0.58334 -0.49935,-1.08334 -0.91602,-1.5 -0.38889,-0.44445 -0.87565,-0.79102 -1.45898,-1.04102 -0.55556,-0.27778 -1.1938,-0.41797 -1.91602,-0.41797 z"
       transform="scale(0.26458333)" />
  </g>
</svg>
